<?xml version="1.0" encoding="UTF-8"?>
<svg version="1.1" xmlns="http://www.w3.org/2000/svg" width="1024" height="1024">
<path d="M0 0 C337.92 0 675.84 0 1024 0 C1024 337.92 1024 675.84 1024 1024 C686.08 1024 348.16 1024 0 1024 C0 686.08 0 348.16 0 0 Z " fill="#FDFDFD" transform="translate(0,0)"/>
<path d="M0 0 C1.98428965 -0.00670597 3.9685793 -0.01341468 5.95286787 -0.02043492 C12.16438641 -0.04174586 18.37585075 -0.05121808 24.58740234 -0.05444336 C30.98108135 -0.05809854 37.37428635 -0.08817436 43.76782 -0.12984794 C49.28409505 -0.16453367 54.80021207 -0.17999124 60.31659544 -0.18068939 C63.60037801 -0.18148078 66.8835619 -0.19254408 70.1672554 -0.21868706 C73.81717315 -0.24546977 77.46575766 -0.24081724 81.11572266 -0.22827148 C82.19626923 -0.24310577 83.2768158 -0.25794006 84.3901062 -0.27322388 C91.66294841 -0.20185005 91.66294841 -0.20185005 95.63156128 2.64755249 C97.40884488 5.29353922 98.08548232 6.43179383 98.07617188 9.54711914 C98.09013 10.72843163 98.09013 10.72843163 98.10437012 11.93360901 C98.07977722 13.1885038 98.07977722 13.1885038 98.0546875 14.46875 C98.05472778 15.34003036 98.05476807 16.21131073 98.05480957 17.10899353 C98.04946196 18.94553872 98.03191157 20.78208392 98.00292969 22.6184082 C97.96102157 25.42795748 97.96186743 28.23511226 97.96875 31.04492188 C97.95825863 32.83204789 97.94532081 34.61916157 97.9296875 36.40625 C97.92948608 37.24487076 97.92928467 38.08349152 97.92907715 38.94752502 C97.85842216 42.43052514 97.78645636 44.76512879 96.11914062 47.86889648 C93.28350294 50.43775377 90.55050626 50.4976512 86.90014648 50.50912476 C85.96426697 50.51457809 85.02838745 50.52003143 84.06414795 50.52565002 C82.52612518 50.52721352 82.52612518 50.52721352 80.95703125 50.52880859 C79.33429291 50.53642967 79.33429291 50.53642967 77.67877197 50.54420471 C75.3232403 50.55492038 72.96769837 50.56353585 70.6121521 50.57032394 C66.8680902 50.58212692 63.12414292 50.60158986 59.38012695 50.6234436 C48.73196803 50.68496763 38.08383079 50.73906726 27.43554688 50.77246094 C20.92210366 50.79358046 14.40886406 50.82903315 7.89553833 50.87321854 C5.42719953 50.88725792 2.95882465 50.89607329 0.490448 50.89927292 C-17.56763976 50.92512891 -34.8992188 51.90268375 -52.2890625 57.18359375 C-53.16481934 57.44366211 -54.04057617 57.70373047 -54.94287109 57.97167969 C-81.29019421 65.9709219 -104.85052593 79.59931023 -125.1328125 98.19140625 C-127.24591229 100.10554534 -129.40766301 101.92655012 -131.6015625 103.74609375 C-136.56220169 108.0791822 -140.50989969 113.18483803 -144.5390625 118.37109375 C-145.65474609 119.78068359 -145.65474609 119.78068359 -146.79296875 121.21875 C-174.78815958 157.39340528 -186.78478148 202.06162204 -181.28515625 247.375 C-176.2901473 283.25079359 -158.84847874 316.64972597 -134.58203125 343.08203125 C-133.16776647 344.6666568 -131.80559755 346.29875228 -130.48828125 347.96484375 C-127.55186515 351.58975822 -124.12252476 354.4008142 -120.5390625 357.37109375 C-119.10626953 358.57765625 -119.10626953 358.57765625 -117.64453125 359.80859375 C-76.17634169 394.01066455 -25.29751963 406.69917213 27.5859375 401.74609375 C59.42325364 398.00982555 91.92660521 384.57233661 116.95166016 364.5703125 C118.30196776 363.49740552 119.68245519 362.46273876 121.06640625 361.43359375 C148.16340029 340.92298162 167.82862622 310.9183274 178.55078125 278.93359375 C179.4609375 276.37109375 179.4609375 276.37109375 180.4609375 275.37109375 C182.11832193 275.2776246 183.77968394 275.25364398 185.43969727 275.25756836 C186.50072159 275.25764389 187.56174591 275.25771942 188.65492249 275.25779724 C189.8090715 275.26295853 190.96322052 275.26811981 192.15234375 275.2734375 C193.32731918 275.27485245 194.50229462 275.2762674 195.71287537 275.27772522 C199.48308814 275.28334383 203.25324254 275.29589949 207.0234375 275.30859375 C209.57226477 275.31360635 212.12109297 275.31816967 214.66992188 275.32226562 C220.93361383 275.33331931 227.19727149 275.35007554 233.4609375 275.37109375 C231.62879272 284.04851807 229.31795514 292.35520795 226.2734375 300.68359375 C225.87833984 301.76954834 225.48324219 302.85550293 225.07617188 303.97436523 C221.79717102 312.80471455 217.98638557 321.12198425 213.4609375 329.37109375 C212.7444954 330.71598805 212.02835669 332.06104401 211.3125 333.40625 C181.42241916 388.77120655 129.84522384 425.92935309 71.03515625 445.3359375 C61.20665667 448.18244284 51.47555637 450.12290593 41.3359375 451.49609375 C40.13839844 451.66496094 38.94085937 451.83382813 37.70703125 452.0078125 C6.57240515 456.33869696 -25.044612 455.39700783 -55.5390625 447.37109375 C-56.33376953 447.17177246 -57.12847656 446.97245117 -57.94726562 446.76708984 C-93.78599177 437.72386815 -126.18534197 419.89136125 -154.5390625 396.37109375 C-155.40660156 395.65695312 -156.27414062 394.9428125 -157.16796875 394.20703125 C-161.19271863 390.80524266 -161.19271863 390.80524266 -162.5390625 389.37109375 C-162.5390625 388.71109375 -162.5390625 388.05109375 -162.5390625 387.37109375 C-163.374375 387.03078125 -163.374375 387.03078125 -164.2265625 386.68359375 C-167.20065838 384.99559339 -169.25915115 382.90432858 -171.5390625 380.37109375 C-171.5390625 379.71109375 -171.5390625 379.05109375 -171.5390625 378.37109375 C-172.1990625 378.37109375 -172.8590625 378.37109375 -173.5390625 378.37109375 C-175.05029297 376.89135742 -175.05029297 376.89135742 -176.78125 374.8515625 C-177.40483398 374.11728027 -178.02841797 373.38299805 -178.67089844 372.62646484 C-204.12448889 341.89720863 -222.3953077 306.52620333 -230.5390625 267.37109375 C-230.71727539 266.57493652 -230.89548828 265.7787793 -231.07910156 264.95849609 C-237.4010896 235.74113151 -235.63362258 201.23926384 -228.5390625 172.37109375 C-228.31444336 171.44554687 -228.08982422 170.52 -227.85839844 169.56640625 C-221.07762679 142.64072204 -207.99452626 116.63758291 -191.5390625 94.37109375 C-191.12301758 93.79955566 -190.70697266 93.22801758 -190.27832031 92.63916016 C-172.4678136 68.25387876 -149.45777463 47.80667323 -123.5390625 32.37109375 C-122.54084473 31.77433838 -122.54084473 31.77433838 -121.52246094 31.16552734 C-96.89980853 16.60441564 -70.62972084 7.47673035 -42.5390625 2.37109375 C-41.58792572 2.19627975 -40.63678894 2.02146576 -39.65682983 1.84135437 C-26.50879587 -0.23296391 -13.2793261 0.02328356 0 0 Z " fill="#2CC068" transform="translate(508.5390625,284.62890625)"/>
<path d="M0 0 C1.97396195 0.00373967 3.94792578 0.00658212 5.92189026 0.00857544 C11.06577872 0.01613688 16.20955053 0.03571915 21.35339355 0.0579834 C26.62294945 0.07860509 31.89252458 0.08761173 37.16210938 0.09765625 C47.46359234 0.11897364 57.76498952 0.15301673 68.06640625 0.1953125 C67.11314368 1.31350619 66.15901703 2.4309633 65.20452881 3.54811096 C64.67329281 4.17047418 64.14205681 4.79283739 63.59472275 5.4340601 C60.34965011 9.17372527 56.81424127 12.63197762 53.31640625 16.1328125 C52.16591797 17.30166992 52.16591797 17.30166992 50.9921875 18.49414062 C50.25871094 19.22955078 49.52523437 19.96496094 48.76953125 20.72265625 C48.10598633 21.39031006 47.44244141 22.05796387 46.75878906 22.74584961 C45.06640625 24.1953125 45.06640625 24.1953125 43.06640625 24.1953125 C42.82535156 24.77410156 42.58429688 25.35289062 42.3359375 25.94921875 C40.28403484 29.57950808 37.12397898 31.82407494 33.94921875 34.47265625 C31.69057917 36.60581586 30.37254814 38.11508941 28.74609375 40.63671875 C25.76119734 44.89744117 22.92217286 48.09832442 18.06640625 50.1953125 C10.12964172 51.52623887 2.15543274 51.3685655 -5.866745 51.18859863 C-6.59521133 51.17276733 -7.32367767 51.15693604 -8.07421875 51.140625 C-8.80151688 51.1247937 -9.528815 51.1089624 -10.27815247 51.09265137 C-32.95503185 50.88320718 -54.20199344 60.19084512 -70.93359375 75.1953125 C-71.5678125 75.74703125 -72.20203125 76.29875 -72.85546875 76.8671875 C-88.17749434 91.06466076 -97.23737762 112.45216362 -98.09375 133.046875 C-98.70467586 155.81822278 -91.45812863 176.37429645 -76.49609375 193.5078125 C-74.99492576 195.08921534 -73.47409067 196.65219568 -71.93359375 198.1953125 C-71.175625 198.96488281 -70.41765625 199.73445312 -69.63671875 200.52734375 C-63.15232846 206.74684881 -55.90806871 211.17324304 -47.93359375 215.1953125 C-47.29615234 215.51806152 -46.65871094 215.84081055 -46.00195312 216.17333984 C-24.0880173 227.03745209 3.14670345 229.18409196 26.67431641 222.02636719 C45.57612668 215.45954108 64.74371399 204.17935089 76.06640625 187.1953125 C78.50881958 186.83454895 78.50881958 186.83454895 81.61767578 186.85473633 C82.77872833 186.85496292 83.93978088 186.85518951 85.13601685 186.85542297 C86.39437347 186.87090683 87.6527301 186.88639069 88.94921875 186.90234375 C90.87602982 186.90871101 90.87602982 186.90871101 92.84176636 186.91520691 C96.25813266 186.9266657 99.67411681 186.95614107 103.09033203 186.98931885 C106.57579376 187.01999788 110.06131719 187.03370756 113.546875 187.04882812 C120.38687582 187.08101029 127.22662269 187.13221874 134.06640625 187.1953125 C133.44539791 188.77697191 132.82144723 190.35747623 132.19628906 191.9375 C131.67557831 193.25790283 131.67557831 193.25790283 131.14434814 194.60498047 C129.61381995 198.2828932 127.78687459 201.73741907 125.81640625 205.1953125 C125.42582031 205.88318848 125.03523438 206.57106445 124.6328125 207.27978516 C121.28593662 213.04610569 117.48614341 218.19760972 113.06640625 223.1953125 C112.33421875 224.03578125 111.60203125 224.87625 110.84765625 225.7421875 C108.62033808 228.25936215 106.35623344 230.73496626 104.06640625 233.1953125 C103.4425 233.87335938 102.81859375 234.55140625 102.17578125 235.25 C79.10861597 259.38329477 42.88086275 275.33747923 9.58413696 276.58174133 C5.86883617 276.66205685 2.15730044 276.66362718 -1.55859375 276.6328125 C-2.34151794 276.62977112 -3.12444214 276.62672974 -3.93109131 276.62359619 C-16.91458292 276.54931804 -29.34992526 275.61444823 -41.93359375 272.1953125 C-43.11791992 271.87385254 -43.11791992 271.87385254 -44.32617188 271.54589844 C-55.50481281 268.38551724 -65.75359791 263.7417316 -75.93359375 258.1953125 C-76.99191406 257.62941406 -78.05023438 257.06351563 -79.140625 256.48046875 C-95.71745027 247.24698154 -110.51653143 234.31460668 -121.93359375 219.1953125 C-122.52527344 218.41929687 -123.11695313 217.64328125 -123.7265625 216.84375 C-135.54323808 200.67356236 -143.55264198 182.71046131 -147.93359375 163.1953125 C-148.11237061 162.40785645 -148.29114746 161.62040039 -148.4753418 160.80908203 C-150.07768526 153.05359694 -150.28162391 145.47252142 -150.24609375 137.5703125 C-150.24360626 136.90790558 -150.24111877 136.24549866 -150.23855591 135.5630188 C-150.17820752 125.15848721 -149.73780564 115.26105559 -146.93359375 105.1953125 C-146.59497314 103.97739014 -146.59497314 103.97739014 -146.24951172 102.73486328 C-136.02942062 67.25118142 -112.64381299 36.73360046 -80.26953125 18.515625 C-68.78271793 12.24977627 -57.3023949 7.11218282 -44.55859375 4.0078125 C-43.92356934 3.8526416 -43.28854492 3.6974707 -42.63427734 3.53759766 C-28.42751907 0.31533762 -14.49399009 -0.08168466 0 0 Z " fill="#2BC068" transform="translate(513.93359375,372.8046875)"/>
<path d="M0 0 C2.1498371 -0.11823982 4.29738011 -0.19401071 6.44946289 -0.25787354 C8.37967285 -0.32881226 8.37967285 -0.32881226 10.34887695 -0.40118408 C15.09499854 0.30052049 16.6289373 1.7085553 19.93383789 5.12884521 C20.59008789 8.12493896 20.59008789 8.12493896 20.43383789 11.56634521 C20.40974854 12.20757324 20.38565918 12.84880127 20.36083984 13.50946045 C20.25990714 15.72037961 20.10213653 17.92205816 19.93383789 20.12884521 C19.87631348 20.95158936 19.81878906 21.7743335 19.75952148 22.62200928 C18.97710607 33.42217247 17.74477647 44.1425734 16.1784668 54.85540771 C15.29924408 61.00672235 14.60647539 67.16151132 13.99243164 73.34368896 C13.82576319 74.98221446 13.65893282 76.6207235 13.49194336 78.25921631 C13.24227374 80.7133214 12.99854162 83.16726366 12.77374268 85.6237793 C12.56235307 87.93062669 12.32999408 90.23456035 12.09399414 92.53900146 C12.00800209 93.57672951 12.00800209 93.57672951 11.92027283 94.63542175 C11.42216369 99.24822743 10.1792278 101.82709431 6.93383789 105.12884521 C3.78049858 106.70551487 1.29600485 107.05093205 -2.06616211 106.12884521 C-5.79873676 103.56608109 -8.89028193 100.33418625 -12.06616211 97.12884521 C-13.39091828 95.81557342 -14.71649306 94.50312706 -16.04272461 93.19134521 C-19.73801603 89.52429861 -23.40887729 85.83377001 -27.06616211 82.12884521 C-30.15012015 83.50271697 -32.2514529 85.06879531 -34.625453 87.45880032 C-35.31757922 88.15064464 -36.00970545 88.84248896 -36.7228052 89.55529827 C-37.47542252 90.31783399 -38.22803984 91.08036971 -39.00346375 91.86601257 C-39.80907472 92.67414809 -40.61468569 93.48228361 -41.44470912 94.31490809 C-44.15229683 97.03328027 -46.85267164 99.75870831 -49.55322266 102.48406982 C-51.48887563 104.43125558 -53.42609639 106.37687851 -55.36332703 108.32249451 C-59.53935539 112.51794688 -63.71203245 116.71670818 -67.8827877 120.91740227 C-74.47726356 127.55862696 -81.08211524 134.1894789 -87.68867493 140.81867981 C-89.94930767 143.08731552 -92.20987307 145.35601832 -94.47041798 147.62474155 C-95.03536082 148.19172285 -95.60030366 148.75870415 -96.18236598 149.3428667 C-102.61274147 155.79672723 -109.04097599 162.2527183 -115.46826172 168.70965576 C-116.05578064 169.29987955 -116.64329957 169.89010334 -117.2486221 170.4982127 C-126.76681699 180.0607579 -136.27728247 189.6309619 -145.78579976 199.20312863 C-155.55071954 209.03285249 -165.32716311 218.85101567 -175.11352187 228.65939528 C-181.14788299 234.70819598 -187.17260094 240.76629067 -193.18522517 246.83670009 C-197.30811574 250.99762104 -201.44188229 255.14752696 -205.58432116 259.28898614 C-207.97298414 261.67777501 -210.35462364 264.07260197 -212.72681427 266.47781372 C-215.3021788 269.08752188 -217.89543607 271.67805722 -220.49394226 274.26469421 C-221.23540597 275.02499921 -221.97686968 275.78530421 -222.74080199 276.56864876 C-229.53098472 283.25567477 -236.01815698 285.56505038 -245.56616211 285.50384521 C-256.41679193 285.24394989 -265.15503738 282.07714683 -272.92944336 274.25384521 C-276.43356144 270.23958107 -278.83371546 267.13602103 -278.72362328 261.52191544 C-277.19078017 255.94257267 -271.91665675 251.96604795 -267.86425781 248.03460693 C-266.76721113 246.94145623 -265.67193234 245.8465289 -264.57829285 244.74996948 C-261.60798428 241.78163452 -258.61375105 238.83854107 -255.61476159 235.89922476 C-252.47679516 232.81508678 -249.36194407 229.70778364 -246.24467468 226.60275269 C-240.33413076 220.72223198 -234.40392876 214.86196831 -228.46602076 209.0090934 C-219.7613623 200.42715706 -211.08835953 191.81332332 -202.41309643 183.20169258 C-201.13082145 181.92894516 -199.84852544 180.65621893 -198.56620789 179.3835144 C-197.93989682 178.76185713 -197.31358575 178.14019985 -196.66829556 177.49970448 C-192.95308855 173.81338342 -189.23290585 170.13217604 -185.50800955 166.45564628 C-183.18694083 164.16443304 -180.86772097 161.87135328 -178.54866219 159.57810593 C-177.47614005 158.51859072 -176.40269353 157.46001028 -175.32823563 156.40245819 C-170.33769858 151.49013027 -165.43093955 146.61593436 -161.06616211 141.12884521 C-158.70692178 138.65164286 -156.41075932 136.3918273 -153.69116211 134.31634521 C-151.45929 132.45645179 -149.77224129 130.70024238 -147.90501404 128.50213623 C-144.12078951 124.13564019 -140.11420967 120.04273579 -136.01953125 115.96868896 C-135.24797699 115.19698868 -134.47642273 114.42528839 -133.68148804 113.63020325 C-131.15713058 111.10653665 -128.62926084 108.58642027 -126.10131836 106.06634521 C-124.33990466 104.30679863 -122.57871313 102.54702962 -120.81773376 100.78704834 C-116.20207223 96.17518883 -111.58341452 91.56634147 -106.96411133 86.95812988 C-102.24277497 82.24760489 -97.52484548 77.53366834 -92.80639648 72.82025146 C-83.56243809 63.58698954 -74.31540656 54.35681177 -65.06616211 45.12884521 C-66.40141091 42.36296637 -67.63803393 40.30791795 -69.82397461 38.14056396 C-70.36368896 37.60213867 -70.90340332 37.06371338 -71.45947266 36.50897217 C-72.03093018 35.95040527 -72.6023877 35.39183838 -73.19116211 34.81634521 C-73.77357666 34.24037598 -74.35599121 33.66440674 -74.95605469 33.07098389 C-78.7159547 29.37775062 -82.5525924 25.80306371 -86.57788086 22.39837646 C-90.04113753 19.44415489 -90.04113753 19.44415489 -90.37866211 15.19134521 C-90.43970779 12.67908065 -90.39597486 11.54952649 -88.83035278 9.55255127 C-86.630071 7.77691866 -85.27768907 7.62745559 -82.47583008 7.37689209 C-81.07259995 7.24145744 -81.07259995 7.24145744 -79.64102173 7.10328674 C-78.11509903 6.97671944 -78.11509903 6.97671944 -76.55834961 6.84759521 C-74.96632217 6.69945625 -74.96632217 6.69945625 -73.34213257 6.54832458 C-69.87617947 6.22891421 -66.40886832 5.92857017 -62.94116211 5.62884521 C-60.56182806 5.41423726 -58.18259609 5.19849455 -55.8034668 4.98162842 C-51.07421256 4.55224151 -46.3444013 4.13002497 -41.61401367 3.71331787 C-36.01951528 3.21812656 -30.42901537 2.68981713 -24.83959961 2.14056396 C-22.66373343 1.92983944 -20.48779895 1.71983891 -18.31182861 1.51019287 C-16.39738693 1.32423493 -14.48346899 1.13290871 -12.56958008 0.94134521 C-8.38263534 0.54977288 -4.19671251 0.26170566 0 0 Z " fill="#2BC068" transform="translate(737.066162109375,279.87115478515625)"/>
<path d="M0 0 C0.99 0.33 1.98 0.66 3 1 C1.88121617 2.17262904 0.75476949 3.33795138 -0.375 4.5 C-1.00148438 5.1496875 -1.62796875 5.799375 -2.2734375 6.46875 C-4 8 -4 8 -6 8 C-6.226875 8.5775 -6.45375 9.155 -6.6875 9.75 C-8.34400513 12.58972308 -10.42567988 13.95224536 -13 16 C-14.01853169 17.19275422 -15.01772237 18.40221625 -16 19.625 C-18.38827624 22.51444301 -20.28423354 24.01641476 -24 25 C-21.2135244 21.387902 -18.24126938 18.20565103 -15 15 C-13.7428114 13.74416814 -12.48635318 12.48760484 -11.23046875 11.23046875 C-7.48697917 7.48697917 -3.74348958 3.74348958 0 0 Z " fill="#3EC677" transform="translate(604,393)"/>
<path d="M0 0 C0.66 0.33 1.32 0.66 2 1 C-2.29 5.29 -6.58 9.58 -11 14 C-11.99 13.67 -12.98 13.34 -14 13 C-12.04468135 11.0177733 -10.08594334 9.03914884 -8.125 7.0625 C-7.56941406 6.49853516 -7.01382812 5.93457031 -6.44140625 5.35351562 C-2.2265625 1.11328125 -2.2265625 1.11328125 0 0 Z " fill="#2FC36D" transform="translate(411,408)"/>
<path d="M0 0 C0.33 0.66 0.66 1.32 1 2 C-6.29840547 10.44646925 -6.29840547 10.44646925 -10 14 C-10.99 13.67 -11.98 13.34 -13 13 C-8.71 8.71 -4.42 4.42 0 0 Z " fill="#3CC875" transform="translate(644,353)"/>
<path d="M0 0 C0.66 0.66 1.32 1.32 2 2 C-0.97 4.97 -3.94 7.94 -7 11 C-7.99 10.67 -8.98 10.34 -10 10 C-6.7 6.7 -3.4 3.4 0 0 Z " fill="#44C97D" transform="translate(671,326)"/>
<path d="M0 0 C0.33 0.99 0.66 1.98 1 3 C-0.65 4.65 -2.3 6.3 -4 8 C-4.99 7.67 -5.98 7.34 -7 7 C-4.69 4.69 -2.38 2.38 0 0 Z " fill="#41C978" transform="translate(630,367)"/>
<path d="M0 0 C0 3.58912412 -0.66436554 4.10857029 -3 6.6875 C-3.556875 7.31011719 -4.11375 7.93273437 -4.6875 8.57421875 C-5.120625 9.04472656 -5.55375 9.51523437 -6 10 C-6.66 9.67 -7.32 9.34 -8 9 C-5.36 6.03 -2.72 3.06 0 0 Z " fill="#38C373" transform="translate(576,421)"/>
<path d="M0 0 C0.99 0.33 1.98 0.66 3 1 C1.68 2.32 0.36 3.64 -1 5 C-1.99 4.67 -2.98 4.34 -4 4 C-2.68 2.68 -1.36 1.36 0 0 Z " fill="#3AC675" transform="translate(401,417)"/>
</svg>
